<?xml version="1.0" encoding="UTF-8" standalone="no"?>
<!-- Created with Inkscape (http://www.inkscape.org/) -->

<svg
   xmlns:dc="http://purl.org/dc/elements/1.1/"
   xmlns:cc="http://creativecommons.org/ns#"
   xmlns:rdf="http://www.w3.org/1999/02/22-rdf-syntax-ns#"
   xmlns:svg="http://www.w3.org/2000/svg"
   xmlns="http://www.w3.org/2000/svg"
   xmlns:sodipodi="http://sodipodi.sourceforge.net/DTD/sodipodi-0.dtd"
   xmlns:inkscape="http://www.inkscape.org/namespaces/inkscape"
   width="300"
   height="400"
   id="svg3156"
   version="1.1"
   inkscape:version="0.48.4 r9939"
   inkscape:export-xdpi="90"
   inkscape:export-ydpi="90"
   sodipodi:docname="Sample.svg">
  <defs
     id="defs3158" />
  <sodipodi:namedview
     id="base"
     pagecolor="#ffffff"
     bordercolor="#666666"
     borderopacity="1.0"
     inkscape:pageopacity="0.0"
     inkscape:pageshadow="2"
     inkscape:zoom="2.0000001"
     inkscape:cx="240.41242"
     inkscape:cy="273.27396"
     inkscape:document-units="px"
     inkscape:current-layer="layer1"
     showgrid="false"
     showguides="true"
     inkscape:guide-bbox="true"
     inkscape:window-width="1366"
     inkscape:window-height="707"
     inkscape:window-x="-4"
     inkscape:window-y="-4"
     inkscape:window-maximized="1">
    <sodipodi:guide
       orientation="0,1"
       position="0,100"
       id="guide3196" />
    <sodipodi:guide
       orientation="0,1"
       position="0,330"
       id="guide3198" />
    <sodipodi:guide
       orientation="1,0"
       position="15,0"
       id="guide3200" />
    <sodipodi:guide
       orientation="1,0"
       position="285,0"
       id="guide3202" />
    <sodipodi:guide
       orientation="0,1"
       position="0,385"
       id="guide3204" />
    <sodipodi:guide
       orientation="0,1"
       position="0,15"
       id="guide3206" />
    <sodipodi:guide
       orientation="0,1"
       position="0,150"
       id="guide3208" />
    <sodipodi:guide
       orientation="1,0"
       position="65,0"
       id="guide4024" />
    <sodipodi:guide
       orientation="1,0"
       position="115,0"
       id="guide4026" />
    <sodipodi:guide
       orientation="1,0"
       position="165,0"
       id="guide4028" />
    <sodipodi:guide
       orientation="0,1"
       position="0,260"
       id="guide4030" />
    <sodipodi:guide
       orientation="0,1"
       position="0,190"
       id="guide4032" />
  </sodipodi:namedview>
  <metadata
     id="metadata3161">
    <rdf:RDF>
      <cc:Work
         rdf:about="">
        <dc:format>image/svg+xml</dc:format>
        <dc:type
           rdf:resource="http://purl.org/dc/dcmitype/StillImage" />
        <dc:title />
      </cc:Work>
    </rdf:RDF>
  </metadata>
  <g
     inkscape:label="Layer 1"
     inkscape:groupmode="layer"
     id="layer1"
     transform="translate(0,-652.36218)">
    <rect
       style="fill:#e3d5d5;fill-opacity:1;stroke-width:2;stroke-miterlimit:4;stroke-dasharray:6, 2;stroke-dashoffset:0"
       id="rect4006"
       width="300"
       height="300"
       x="0"
       y="652.36218" />
    <rect
       style="fill:#9f7c29;fill-opacity:1;stroke-width:2;stroke-miterlimit:4;stroke-dasharray:6, 2;stroke-dashoffset:0"
       id="rect3236"
       width="300"
       height="100"
       x="0"
       y="952.36218" />
    <text
       xml:space="preserve"
       style="font-size:32px;font-style:normal;font-variant:normal;font-weight:normal;font-stretch:normal;text-align:start;line-height:125%;letter-spacing:0px;word-spacing:0px;writing-mode:lr-tb;text-anchor:start;fill:#000000;fill-opacity:1;stroke:none;font-family:Pirogov;-inkscape-font-specification:Pirogov"
       x="17"
       y="709.76233"
       id="text3164"
       sodipodi:linespacing="125%"><tspan
         sodipodi:role="line"
         id="tspan3023"
         x="17"
         y="709.76233">Pirogov</tspan></text>
    <text
       xml:space="preserve"
       style="font-size:160px;font-style:normal;font-variant:normal;font-weight:normal;font-stretch:normal;text-align:start;line-height:125%;letter-spacing:0px;word-spacing:0px;writing-mode:lr-tb;text-anchor:start;fill:#ffffff;fill-opacity:1;stroke:none;font-family:Pirogov;-inkscape-font-specification:Pirogov"
       x="183"
       y="853.41241"
       id="text3168"
       sodipodi:linespacing="125%"><tspan
         sodipodi:role="line"
         id="tspan3170"
         x="183"
         y="853.41241">а</tspan></text>
    <text
       xml:space="preserve"
       style="font-size:22px;font-style:normal;font-variant:normal;font-weight:normal;font-stretch:normal;text-align:start;line-height:125%;letter-spacing:0px;word-spacing:0px;writing-mode:lr-tb;text-anchor:start;fill:#000000;fill-opacity:1;stroke:none;font-family:Pirogov;-inkscape-font-specification:Pirogov"
       x="27.015926"
       y="792.36218"
       id="text3172"
       sodipodi:linespacing="125%"><tspan
         sodipodi:role="line"
         id="tspan3174"
         x="27.015926"
         y="792.36218">Аа</tspan></text>
    <text
       xml:space="preserve"
       style="font-size:22px;font-style:normal;font-variant:normal;font-weight:normal;font-stretch:normal;text-align:start;line-height:125%;letter-spacing:0px;word-spacing:0px;writing-mode:lr-tb;text-anchor:start;fill:#000000;fill-opacity:1;stroke:none;font-family:Pirogov;-inkscape-font-specification:Pirogov"
       x="23.349243"
       y="862.36218"
       id="text3184"
       sodipodi:linespacing="125%"><tspan
         sodipodi:role="line"
         id="tspan3186"
         x="23.349243"
         y="862.36218">Рр</tspan></text>
    <text
       xml:space="preserve"
       style="font-size:24px;font-style:normal;font-variant:normal;font-weight:normal;font-stretch:normal;text-align:start;line-height:125%;letter-spacing:0px;word-spacing:0px;writing-mode:lr-tb;text-anchor:start;fill:#9f7c29;fill-opacity:1;stroke:none;font-family:Pirogov;-inkscape-font-specification:Pirogov"
       x="71"
       y="935.19061"
       id="text3210"
       sodipodi:linespacing="125%"><tspan
         sodipodi:role="line"
         id="tspan3799"
         x="71"
         y="935.19061">Далёкая гавань</tspan></text>
    <text
       xml:space="preserve"
       style="font-size:14px;font-style:normal;font-variant:normal;font-weight:bold;font-stretch:normal;line-height:125%;letter-spacing:0px;word-spacing:0px;fill:#000000;fill-opacity:1;stroke:none;font-family:Arial;-inkscape-font-specification:Arial Bold"
       x="38.890873"
       y="317.97562"
       id="text3218"
       sodipodi:linespacing="125%"
       transform="translate(0,652.36218)"><tspan
         sodipodi:role="line"
         id="tspan3220"
         x="38.890873"
         y="317.97562" /></text>
    <text
       xml:space="preserve"
       style="font-size:15px;font-style:normal;font-variant:normal;font-weight:normal;font-stretch:normal;text-align:start;line-height:125%;letter-spacing:0px;word-spacing:0px;writing-mode:lr-tb;text-anchor:start;fill:#000000;fill-opacity:1;stroke:none;font-family:Pirogov;-inkscape-font-specification:Pirogov"
       x="23.112698"
       y="973.40881"
       id="text3222"
       sodipodi:linespacing="125%"><tspan
         sodipodi:role="line"
         x="23.112698"
         y="973.40881"
         id="tspan3226">а б в г д е ё ж з и й к л м н о</tspan><tspan
         sodipodi:role="line"
         x="23.112698"
         y="992.15881"
         id="tspan3230">п р с т у ф х ц ч ш щ ъ ы ь э ю я </tspan></text>
    <g
       style="font-size:22px;font-style:normal;font-variant:normal;font-weight:normal;font-stretch:normal;text-align:start;line-height:125%;letter-spacing:0px;word-spacing:0px;writing-mode:lr-tb;text-anchor:start;fill:#000000;fill-opacity:1;stroke:none;font-family:Pirogov;-inkscape-font-specification:Pirogov"
       id="text3232"
       transform="translate(-8,2)">
      <path
         d="m 71.290466,1020.2352 c -0.0573,0.01 -0.128915,0.029 -0.214843,0.065 -0.10027,0.043 -0.168303,0.068 -0.204102,0.075 -0.250659,0.057 -0.658862,0.2506 -1.224609,0.5801 -0.623054,0.358 -1.070645,0.6839 -1.342774,0.9775 -0.830734,0.8809 -1.704431,1.7438 -2.621094,2.5889 -0.537112,0.4941 -0.981122,1.1279 -1.332031,1.9013 -0.08594,0.1719 -0.257814,0.4333 -0.515625,0.7842 -0.329428,0.4512 -0.551433,0.777 -0.666015,0.9775 -0.558595,0.8881 -0.823568,1.7654 -0.794922,2.6319 0.02864,0.9381 0.343749,1.6435 0.945312,2.1162 0.465493,0.3437 1.013344,0.5228 1.643555,0.5371 0.959632,0.029 1.9873,-0.1253 3.083008,-0.4619 0.136061,-0.05 0.494134,-0.1182 1.074218,-0.2041 0.52278,-0.079 1.006177,-0.2041 1.450196,-0.376 1.697255,-0.6374 2.875314,-1.2819 3.534179,-1.9336 0.179025,-0.179 0.512032,-0.4798 0.999024,-0.9023 0.730455,-0.6087 1.253241,-1.0528 1.568359,-1.3321 0.973943,-0.8593 1.736638,-1.9873 2.288086,-3.3837 0.171858,-0.4226 0.22915,-0.9095 0.171875,-1.461 -0.04299,-0.5299 -0.168311,-1.0169 -0.375976,-1.4609 -0.207699,-0.4082 -0.576514,-0.7555 -1.106446,-1.042 -0.508478,-0.2578 -1.006199,-0.3867 -1.493164,-0.3867 -0.27931,0.021 -0.759127,0.1432 -1.439453,0.3652 -0.322278,0.1074 -0.605155,0.068 -0.848633,-0.1182 -0.07163,-0.057 -0.146821,-0.1396 -0.225586,-0.247 -0.09311,-0.1003 -0.14324,-0.154 -0.15039,-0.1612 -0.04298,-0.043 -0.250662,-0.057 -0.623047,-0.043 -0.458344,0.029 -0.798513,0.029 -1.020508,0 -0.157561,-0.021 -0.279306,-0.043 -0.365234,-0.064 -0.0573,-0.014 -0.121754,-0.022 -0.19336,-0.022 z m -0.483398,2.1807 c -0.329435,0.1361 -0.712573,0.487 -1.149414,1.0527 -0.365242,0.487 -0.569343,0.7699 -0.612305,0.8487 -0.08594,0.1432 -0.125332,0.3079 -0.118164,0.4941 0.02148,0.3294 0.08235,0.6266 0.182617,0.8916 0.164707,0.3939 0.401035,0.598 0.708985,0.6123 0.315096,0.01 0.515617,-0.1253 0.601562,-0.3975 0.05012,-0.179 0.0537,-0.4046 0.01074,-0.6767 -0.03581,-0.2148 0.01432,-0.4548 0.150391,-0.7197 0.171866,-0.3366 0.440421,-0.5801 0.805664,-0.7305 1.339182,-0.5801 2.023101,-0.8809 2.051758,-0.9024 0.55142,-0.3079 1.310534,-0.4654 2.277344,-0.4726 0.565741,-0.01 1.038397,0.1217 1.417968,0.3867 0.393865,0.2865 0.590805,0.666 0.590821,1.1387 -1.6e-5,0.2292 -0.143245,0.5837 -0.429688,1.0635 -0.329442,0.5872 -0.755548,1.1243 -1.27832,1.6113 -0.17905,0.1719 -0.47267,0.4691 -0.88086,0.8916 -0.408215,0.4154 -0.73048,0.7376 -0.966796,0.9668 -0.802095,0.7519 -1.56837,1.3034 -2.298829,1.6543 -0.580087,0.265 -1.156584,0.5228 -1.729492,0.7734 -0.336596,0.1433 -0.565762,0.2578 -0.6875,0.3438 -0.358079,0.2649 -1.178066,0.4189 -2.459961,0.4619 -0.179041,0.01 -0.418949,0.072 -0.719726,0.1933 -0.257817,0.1146 -0.580082,0.1612 -0.966797,0.1397 -0.451175,-0.01 -0.802086,-0.1289 -1.052735,-0.3652 -0.200522,-0.2077 -0.29004,-0.444 -0.268554,-0.709 0.0931,-0.974 0.533526,-1.9157 1.321289,-2.8252 0.307939,-0.3581 0.540686,-0.7448 0.698242,-1.1602 0.143225,-0.3652 0.404618,-0.7269 0.78418,-1.0849 0.393875,-0.3867 0.723302,-0.7377 0.988281,-1.0528 0.236322,-0.3007 0.433262,-0.5156 0.59082,-0.6445 1.059889,-0.974 1.872714,-1.5684 2.438477,-1.7832 z"
         id="path3823"
         inkscape:connector-curvature="0" />
      <path
         d="m 104.68793,1020.5575 c -2e-5,0.1504 -0.20412,0.4727 -0.61231,0.9668 -0.12176,0.1361 -0.32586,0.3652 -0.6123,0.6875 -0.29364,0.3366 -0.51922,0.5944 -0.67676,0.7734 -0.19337,0.2292 -0.46551,0.5192 -0.81641,0.8701 -0.27931,0.2579 -0.67319,0.7198 -1.18164,1.3858 -0.45118,0.5872 -0.902353,1.2174 -1.353512,1.8906 -0.358085,0.5443 -0.676769,0.9847 -0.956055,1.3213 -0.988291,1.1244 -1.507497,1.7295 -1.557617,1.8154 -0.08595,0.1433 -0.322275,0.4047 -0.708985,0.7842 -0.379565,0.3796 -0.612312,0.6338 -0.698242,0.7627 -0.236336,0.3509 -0.3545,0.709 -0.354492,1.0742 -8e-6,0.1647 -0.11101,0.3008 -0.333008,0.4082 -0.229174,0.1146 -0.494147,0.1612 -0.794922,0.1397 -0.286464,-0.014 -0.486985,-0.1325 -0.601562,-0.3545 -0.0931,-0.1791 -0.146816,-0.4619 -0.161133,-0.8486 -0.0072,-0.308 0.06445,-0.6267 0.214844,-0.9561 0.1289,-0.2793 0.27571,-0.4798 0.440429,-0.6016 0.193353,-0.1504 0.512038,-0.512 0.956055,-1.0849 0.47981,-0.6087 0.866528,-0.999 1.160156,-1.1709 0.587231,-0.3724 0.465486,-0.6445 -0.365234,-0.8164 -1.081387,-0.2364 -2.13054,-0.2936 -3.147461,-0.1719 -0.787765,0.1003 -1.238936,0.1432 -1.353516,0.1289 -0.508466,-0.086 -0.862958,-0.011 -1.063476,0.2256 -0.05729,0.05 -0.09668,0.1325 -0.118164,0.2471 -0.02149,0.1289 -0.05013,0.222 -0.08594,0.2793 -0.121747,0.2005 -0.458335,0.2936 -1.009765,0.2793 -0.551433,-0.014 -0.895183,-0.3008 -1.03125,-0.8594 -0.07878,-0.3867 -0.05371,-0.7591 0.07519,-1.1172 0.08594,-0.2363 0.189778,-0.4082 0.311523,-0.5156 0.20052,-0.1504 0.54427,-0.2543 1.03125,-0.3116 1.804684,-0.1933 3.140295,-0.1933 4.006836,0 0.959629,0.2364 1.700839,0.3331 2.223633,0.2901 0.100252,-0.022 0.368807,0.018 0.805664,0.1181 0.33658,0.072 0.705394,0.036 1.106445,-0.1074 0.565745,-0.2077 1.342763,-1.0778 2.331055,-2.6103 0.408184,-0.6087 0.812814,-1.1351 1.213864,-1.5791 0.444,-0.444 0.68749,-0.7018 0.73047,-0.7735 0.20767,-0.2864 0.46906,-0.5872 0.78418,-0.9023 0.39386,-0.3581 0.69464,-0.5407 0.90234,-0.5479 0.80923,-0.043 1.2425,0.2507 1.29981,0.8809 z"
         id="path3825"
         inkscape:connector-curvature="0" />
      <path
         d="m 120.75824,1031.2675 c 0.0931,0.086 0.22558,0.2112 0.39746,0.3759 0.1289,0.1361 0.23274,0.2292 0.31152,0.2793 0.20052,0.1576 0.43326,0.2399 0.69825,0.2471 0.65884,0.01 0.9632,-0.01 0.91308,-0.043 0.34374,0.2292 0.39745,0.5658 0.16114,1.0098 -0.0716,0.1432 -0.20054,0.2363 -0.38672,0.2793 -0.1146,0.036 -0.37599,0.061 -0.78418,0.075 -0.007,0 -0.4118,-0.09 -1.21387,-0.2686 -0.0573,-0.014 -0.14682,-0.025 -0.26856,-0.032 -0.11459,-0.01 -0.2041,-0.025 -0.26855,-0.054 -0.23634,-0.064 -0.50489,-0.2542 -0.80566,-0.5693 -0.1504,-0.1504 -0.38673,-0.4512 -0.70899,-0.9024 -0.17188,-0.222 -0.34017,-0.333 -0.50488,-0.333 0.0573,0 -0.51921,0.3402 -1.72949,1.0205 -0.32943,0.1862 -0.68393,0.3796 -1.06348,0.5801 -0.32943,0.1504 -0.60515,0.2972 -0.82715,0.4404 -0.54427,0.3223 -1.06348,0.4834 -1.55762,0.4834 -0.25781,0 -0.43684,-0.054 -0.5371,-0.1611 -0.0931,-0.093 -0.14681,-0.265 -0.16114,-0.5156 -0.0143,-0.2722 0.13965,-0.5873 0.46192,-0.9453 0.35807,-0.4082 0.86653,-0.7878 1.52539,-1.1387 0.42252,-0.222 0.88085,-0.5013 1.375,-0.8379 0.34374,-0.2363 0.67317,-0.4082 0.98828,-0.5156 0.0215,0 0.37239,-0.064 1.05273,-0.1934 0.36523,-0.072 0.75911,-0.265 1.18164,-0.5801 0.3151,-0.222 0.76627,-0.5729 1.35352,-1.0527 0.47981,-0.3796 0.84504,-0.6445 1.0957,-0.7949 0.9453,-0.6302 1.88345,-1.4574 2.81446,-2.4815 0.23631,-0.2721 0.50487,-0.5084 0.80566,-0.709 0.19335,-0.136 0.33658,-0.3043 0.42969,-0.5048 0.0788,-0.1576 0.22915,-0.3151 0.45117,-0.4727 0.1647,-0.1217 0.2578,-0.3258 0.2793,-0.6123 0.0286,-0.3652 -0.004,-0.5765 -0.0967,-0.6338 -0.0931,-0.064 -0.30438,-0.014 -0.63379,0.1504 -0.23634,0.1074 -0.48341,0.2578 -0.74121,0.4512 -0.25067,0.179 -0.42612,0.29 -0.52637,0.333 -0.0358,0.022 -0.14682,0.064 -0.33301,0.1289 -0.15756,0.057 -0.29005,0.1146 -0.39746,0.1719 -0.30079,0.136 -0.47625,0.29 -0.52637,0.4619 -0.0215,0.086 -0.0322,0.1933 -0.0322,0.3222 -0.007,0.1576 -0.0143,0.265 -0.0215,0.3223 -0.0358,0.2507 -0.15398,0.4476 -0.35449,0.5908 -0.10027,0.057 -0.19337,0.1289 -0.2793,0.2149 -0.12175,0.1146 -0.1862,0.1754 -0.19336,0.1826 -0.12891,0.1146 -0.33659,0.1647 -0.62304,0.1504 -0.57293,-0.014 -0.81284,-0.4082 -0.71973,-1.1817 0.12174,-1.0598 0.61588,-1.8691 1.48242,-2.4277 0.45116,-0.2936 0.9274,-0.5908 1.42871,-0.8916 0.51562,-0.2864 0.85579,-0.4905 1.02051,-0.6123 0.33658,-0.2077 0.84504,-0.3903 1.52539,-0.5479 0.59439,-0.1217 1.04914,-0.179 1.36426,-0.1718 0.27212,0.014 0.54784,0.1289 0.82715,0.3437 0.27212,0.2292 0.4046,0.4655 0.39746,0.709 -2e-5,0.2722 -0.0824,0.6553 -0.24707,1.1494 -0.17905,0.487 -0.34019,0.8057 -0.4834,0.9561 -0.0645,0.05 -0.25783,0.3974 -0.58008,1.042 -0.48699,0.9095 -1.24611,1.7724 -2.27734,2.5888 -1.48244,1.196 -2.20216,1.7653 -2.15918,1.708 -0.3366,0.487 -1.14226,1.1137 -2.41699,1.8799 -0.40105,0.2435 -0.57293,0.5013 -0.51563,0.7735 0.0501,0.2076 0.26139,0.4619 0.63379,0.7627 z"
         id="path3827"
         inkscape:connector-curvature="0" />
      <path
         d="m 147.39886,1031.0848 c -1e-5,0.3581 -0.26856,0.7413 -0.80566,1.1495 -0.57293,0.4654 -1.2282,0.7519 -1.96582,0.8593 -0.56576,0.072 -1.09929,0.1182 -1.60059,0.1397 -0.45117,0.01 -0.83789,0.032 -1.16015,0.075 -0.91667,0.1718 -1.86556,0.2435 -2.84668,0.2148 -0.63737,-0.014 -1.06706,-0.1074 -1.28906,-0.2793 -0.17904,-0.136 -0.24349,-0.3366 -0.19336,-0.6015 0.0358,-0.1934 0.17187,-0.3617 0.4082,-0.5049 0.043,-0.029 0.13965,-0.086 0.29004,-0.1719 0.10742,-0.057 0.17903,-0.1003 0.21484,-0.1289 0.21484,-0.1862 0.43327,-0.2829 0.65528,-0.29 0.0931,-0.01 0.18977,0.043 0.29004,0.1503 0.11458,0.1218 0.23632,0.2041 0.36523,0.2471 0.20768,0.072 0.69824,0.09 1.47168,0.054 0.80924,-0.043 1.45735,-0.1289 1.94434,-0.2578 0.12889,-0.036 0.42251,-0.1002 0.88085,-0.1933 0.36523,-0.086 0.64095,-0.1576 0.82715,-0.2149 0.57291,-0.2077 0.74837,-0.5264 0.52637,-0.956 -0.49415,-0.9883 -1.06348,-1.6687 -1.70801,-2.0411 -0.5586,-0.2936 -1.04916,-0.6445 -1.47168,-1.0527 -0.52995,-0.5013 -0.77344,-0.9346 -0.73047,-1.2998 0.0501,-0.5514 0.58724,-1.1208 1.61133,-1.708 0.40104,-0.2292 1.03124,-0.7913 1.89063,-1.6865 0.52277,-0.5586 0.78417,-0.9095 0.78418,-1.0528 -1e-5,-0.1217 -0.068,-0.2076 -0.2041,-0.2578 -0.1504,-0.057 -0.27573,-0.043 -0.37598,0.043 -0.0645,0.057 -0.22201,0.1003 -0.47266,0.1289 -0.29363,0.021 -0.50131,0.057 -0.62304,0.1074 -0.0859,0.029 -0.31512,0.079 -0.6875,0.1504 -0.31511,0.072 -0.56577,0.1397 -0.75196,0.2041 -0.043,0.022 -0.29004,0.1576 -0.74121,0.4082 -0.28646,0.1791 -0.54785,0.2793 -0.78418,0.3008 -0.25065,0.01 -0.47982,0.082 -0.6875,0.2256 -0.17904,0.1432 -0.28646,0.3008 -0.32226,0.4726 -0.0573,0.2865 -0.17904,0.5443 -0.36524,0.7735 -0.2793,0.3509 -0.6696,0.5335 -1.1709,0.5478 -0.52278,0.01 -0.83789,-0.111 -0.94531,-0.3545 -0.11458,-0.2148 -0.0788,-0.401 0.10742,-0.5586 0.35091,-0.3437 0.56576,-0.8343 0.64453,-1.4716 0.0501,-0.3796 0.43685,-0.7448 1.16016,-1.0957 0.222,-0.1075 0.68392,-0.2936 1.38574,-0.5586 0.65169,-0.265 1.01692,-0.4118 1.09571,-0.4405 0.14322,-0.079 0.43326,-0.1611 0.87011,-0.247 0.45117,-0.086 0.76985,-0.1182 0.95606,-0.097 0.14322,0.01 0.40819,-0.032 0.79492,-0.1182 0.444,-0.1074 0.75911,-0.1683 0.94531,-0.1826 1.23176,-0.079 1.91926,-0.021 2.0625,0.1719 0.222,0.2793 0.34374,0.444 0.36524,0.4941 0.10741,0.265 0.0859,0.6159 -0.0645,1.0528 -0.26498,0.8307 -0.82716,1.6686 -1.68652,2.5136 -0.86655,0.8522 -1.26043,1.2569 -1.18164,1.2139 -0.23634,0.1361 -0.41895,0.2686 -0.54785,0.3975 -0.11459,0.136 -0.2256,0.2291 -0.33301,0.2792 -0.30795,0.1146 -0.49773,0.2185 -0.56934,0.3116 -0.14323,0.1289 -0.0859,0.2972 0.17188,0.5049 0.12174,0.093 0.30793,0.222 0.55859,0.3867 0.38671,0.2435 0.63736,0.3939 0.75196,0.4511 0.62303,0.4297 1.02407,0.7986 1.20312,1.1065 0.12174,0.222 0.29003,0.5586 0.50488,1.0098 0.14322,0.3365 0.26139,0.5621 0.3545,0.6767 0.11457,0.1146 0.17902,0.2757 0.19335,0.4834 -1e-5,0.043 -1e-5,0.1218 0,0.2363 -0.007,0.129 -0.007,0.222 0,0.2793 z"
         id="path3829"
         inkscape:connector-curvature="0" />
      <path
         d="m 162.23383,1027.8514 c 0.62304,0.022 0.95604,0.029 0.99902,0.022 0.24348,-0.036 0.52994,-0.1897 0.85937,-0.4619 0.20768,-0.1719 0.53352,-0.4834 0.97754,-0.9346 0.32226,-0.3509 0.55143,-0.5514 0.6875,-0.6015 0.12174,-0.043 0.28287,-0.1791 0.4834,-0.4082 0.25064,-0.2865 0.48339,-0.5085 0.69824,-0.666 0.16471,-0.1218 0.45117,-0.2901 0.85938,-0.5049 0.30793,-0.1934 0.54426,-0.3724 0.70898,-0.5371 0.52994,-0.4727 0.98111,-0.7054 1.35352,-0.6983 0.7591,0.022 1.31411,0.1289 1.66504,0.3223 0.22199,0.1217 0.36522,0.2793 0.42969,0.4726 0.0788,0.2006 0.0608,0.4083 -0.0537,0.6231 -0.25782,0.5013 -0.63738,0.8558 -1.13867,1.0635 -0.5228,0.222 -0.88803,0.4834 -1.0957,0.7841 -0.0859,0.1146 -0.26499,0.2471 -0.53711,0.3975 -0.32228,0.1576 -0.55144,0.2972 -0.6875,0.419 -0.11459,0.1217 -0.35808,0.2828 -0.73047,0.4834 -0.34376,0.2005 -0.59441,0.3903 -0.75195,0.5693 -0.16473,0.1647 -0.38315,0.3187 -0.65528,0.4619 -0.31511,0.1361 -0.51563,0.2435 -0.60156,0.3223 -0.13607,0.1002 -0.29005,0.2649 -0.46191,0.4941 -0.15756,0.2005 -0.27931,0.3259 -0.36524,0.376 -0.42969,0.265 -0.64812,0.4798 -0.65527,0.6445 -0.0143,0.093 0.0286,0.1576 0.12891,0.1934 0.0859,0.029 0.20767,0.029 0.36523,0 0.76627,-0.1791 1.16373,-0.2686 1.19238,-0.2686 0.15755,0.029 0.2399,0.1289 0.24707,0.3008 -1e-5,0.1934 -0.0931,0.3617 -0.27929,0.5049 -0.73764,0.5228 -1.15301,0.7985 -1.2461,0.8271 -0.0788,0.029 -0.29004,0.072 -0.63379,0.1289 -0.17188,0.036 -0.29362,0.111 -0.36523,0.2256 -0.0645,0.1433 -0.24708,0.2435 -0.54785,0.3008 -0.25782,0.029 -0.45834,0.025 -0.60156,-0.011 -0.11459,-0.05 -0.23992,-0.1397 -0.37598,-0.2686 -0.1862,-0.1647 -0.29363,-0.2542 -0.32227,-0.2685 -0.1862,-0.1361 -0.26497,-0.4476 -0.23632,-0.9346 0.007,-0.1576 0.0859,-0.376 0.23632,-0.6553 0.16471,-0.265 0.25065,-0.4619 0.25782,-0.5908 0.0215,-0.2077 -0.0179,-0.3366 -0.11817,-0.3867 -0.0859,-0.036 -0.3903,-0.054 -0.91308,-0.054 -0.63738,0 -1.30339,-0.1289 -1.99805,-0.3868 -0.82357,-0.3079 -1.31413,-0.6874 -1.47168,-1.1386 -0.3151,-0.8809 -0.29004,-1.5684 0.0752,-2.0625 0.0644,-0.086 0.13606,-0.1934 0.21484,-0.3223 0.10026,-0.179 0.16471,-0.2972 0.19336,-0.3545 0.17903,-0.2578 0.4082,-0.4655 0.6875,-0.623 0.52994,-0.308 1.12076,-0.931 1.77246,-1.8692 0.47981,-0.6875 0.92024,-1.1494 1.32129,-1.3857 0.15755,-0.086 0.34374,-0.2327 0.55859,-0.4404 0.21484,-0.2077 0.36523,-0.333 0.45117,-0.376 0.25065,-0.1003 0.6123,-0.036 1.08496,0.1933 0.17187,0.093 0.30794,0.2292 0.40821,0.4082 0.0931,0.1433 0.13606,0.2901 0.1289,0.4405 -0.0286,0.1504 -0.19336,0.4118 -0.49414,0.7842 -0.31511,0.358 -0.58724,0.6158 -0.8164,0.7734 -0.47266,0.2793 -0.88087,0.6624 -1.22461,1.1494 -0.50847,0.7376 -0.9668,1.2497 -1.375,1.5361 -0.36524,0.2579 -0.60515,0.4405 -0.71973,0.5479 -0.20052,0.2005 -0.30078,0.3831 -0.30078,0.5478 0,0.5228 0.9095,0.82 2.72852,0.8916 z"
         id="path3831"
         inkscape:connector-curvature="0" />
      <path
         d="m 199.47699,1020.0848 c 1.21027,0.05 1.83689,0.3545 1.87988,0.9131 0.0501,0.5515 -0.57293,0.7699 -1.86914,0.6553 -0.17905,-0.014 -0.66961,-0.075 -1.47168,-0.1826 -0.54429,-0.079 -1.11362,-0.1253 -1.70801,-0.1397 -0.54428,-0.014 -1.05275,-0.01 -1.52539,0.021 -0.41537,0.029 -0.75196,0.032 -1.00976,0.011 -0.75197,-0.029 -1.26043,0.1432 -1.52539,0.5156 -0.38673,0.5514 -0.58367,0.8558 -0.59082,0.9131 -0.0501,0.136 -0.23992,0.2291 -0.56934,0.2793 -0.49415,0.093 -0.79851,0.1611 -0.91308,0.2041 -0.0859,0.043 -0.55503,0.2864 -1.40723,0.7304 -0.84506,0.4584 -1.28907,0.7126 -1.33203,0.7627 -0.1504,0.2006 -0.23276,0.351 -0.24707,0.4512 -0.0358,0.179 0.0465,0.3688 0.24707,0.5693 0.19335,0.1934 0.32584,0.2901 0.39746,0.2901 0.0358,0 0.0788,-0.014 0.1289,-0.043 0.0716,-0.029 0.1289,-0.047 0.17188,-0.054 0.23632,-0.086 1.01692,0.444 2.3418,1.5898 0.29361,0.2722 0.50845,0.5372 0.64453,0.795 0.043,0.05 0.0931,0.1432 0.15039,0.2793 0.0573,0.1074 0.10383,0.1933 0.13965,0.2578 0.0931,0.1289 0.16828,0.3008 0.22558,0.5156 0.10025,0.3223 0.1647,0.5335 0.19336,0.6338 0.27213,0.6588 0.23274,1.1709 -0.11816,1.5361 -0.64454,0.6517 -1.19956,1.0599 -1.66504,1.2246 -0.93816,0.3295 -1.45737,0.53 -1.55762,0.6016 -0.19337,0.1575 -0.78777,0.2292 -1.7832,0.2148 -0.88087,-0.014 -1.56478,-0.072 -2.05176,-0.1718 -0.25782,-0.05 -0.93457,-0.1934 -2.03027,-0.4297 -1.60417,-0.3438 -2.4349,-0.7448 -2.49219,-1.2032 -0.0501,-0.4082 -0.0501,-0.7018 0,-0.8808 0.0931,-0.3151 0.33659,-0.5658 0.73047,-0.752 0.33659,-0.179 0.69108,-0.05 1.06348,0.3868 0.45117,0.4869 0.76985,0.7376 0.95605,0.7519 0.27929,0.022 0.58724,0.065 0.92383,0.1289 0.40104,0.093 0.71256,0.1504 0.93457,0.1719 0.45117,0.057 1.13866,0.082 2.0625,0.075 1.01692,-0.01 1.67219,-0.061 1.96582,-0.1611 0.74478,-0.2722 1.17805,-0.5193 1.2998,-0.7413 0.10742,-0.2076 0.16113,-0.3724 0.16114,-0.4941 -0.0215,-0.2363 -0.17905,-0.5192 -0.47266,-0.8486 -0.71615,-0.8093 -1.59701,-1.4502 -2.64258,-1.9229 -0.95964,-0.4297 -1.55046,-0.7161 -1.77246,-0.8594 -0.42969,-0.3007 -0.6517,-0.6481 -0.66601,-1.042 -1e-5,-0.4296 0.19335,-0.9023 0.58007,-1.4179 0.36523,-0.487 0.84863,-0.9453 1.4502,-1.375 1.16731,-0.7878 1.93358,-1.2175 2.29883,-1.2891 0.52277,-0.1002 1.05988,-0.4153 1.61133,-0.9453 0.7591,-0.7734 1.55044,-1.1959 2.37402,-1.2676 1.23892,-0.086 2.31313,-0.021 3.22265,0.1934 1.5397,0.3796 2.63182,0.5837 3.27637,0.6123 z"
         id="path3833"
         inkscape:connector-curvature="0" />
      <path
         d="m 220.19867,1019.6122 c -0.16472,0 -0.40821,0.021 -0.73047,0.064 0.0788,-0.01 -0.73048,0.3402 -2.42773,1.042 -0.47983,0.1934 -1.20314,0.684 -2.16993,1.4717 -0.92383,0.752 -1.50391,1.307 -1.74023,1.665 -0.58724,0.8809 -1.2461,1.6723 -1.97656,2.3741 -0.23633,0.2435 -0.40463,0.5729 -0.50489,0.9883 -0.15039,0.4726 -0.25423,0.7555 -0.31152,0.8486 -0.12174,0.1575 -0.18978,0.3437 -0.2041,0.5586 -0.0358,0.3222 -0.0967,0.598 -0.18262,0.8271 -0.23633,0.7019 0.0143,1.4645 0.75196,2.2881 0.52994,0.5944 1.41796,0.9382 2.66406,1.0313 0.3151,0.01 0.57291,0.082 0.77344,0.2255 0.32226,0.2006 0.73762,0.3724 1.24609,0.5157 0.71614,0.2077 1.57193,0.2506 2.56738,0.1289 0.88085,-0.1146 1.54329,-0.3008 1.98731,-0.5586 0.35806,-0.2292 0.70897,-0.5192 1.05273,-0.8701 0.32225,-0.3151 0.49771,-0.5443 0.52637,-0.6875 0.007,-0.022 0.12889,-0.1862 0.36523,-0.4942 0.222,-0.3151 0.34374,-0.6517 0.36524,-1.0097 0.0215,-0.4226 -0.11818,-0.8415 -0.41895,-1.2569 -0.21485,-0.3007 -0.57293,-0.6552 -1.07422,-1.0635 -0.3366,-0.2864 -0.80567,-0.5048 -1.40722,-0.6552 -0.12176,-0.036 -0.34018,-0.093 -0.65528,-0.1719 -0.22917,-0.043 -0.39747,-0.079 -0.50488,-0.1074 -0.25066,-0.1146 -0.86654,-0.1719 -1.84766,-0.1719 -0.99544,0 -1.71159,0.039 -2.14843,0.1182 -0.37957,0.079 -0.60873,0.075 -0.6875,-0.011 -0.0286,-0.043 -0.0108,-0.1325 0.0537,-0.2685 0.1289,-0.3151 0.40103,-0.6338 0.8164,-0.9561 0.0573,-0.057 0.12174,-0.1289 0.19336,-0.2148 0.0931,-0.1074 0.18261,-0.2077 0.26856,-0.3008 0.33658,-0.3294 0.89159,-0.7734 1.66504,-1.332 0.97395,-0.7162 2.07323,-1.2712 3.29785,-1.6651 0.19335,-0.072 0.40819,0.01 0.64453,0.2363 0.2578,0.2364 0.41893,0.3546 0.4834,0.3545 0.21483,10e-5 0.43325,-0.1289 0.65527,-0.3867 0.0501,-0.043 0.0967,-0.093 0.13965,-0.1504 0.0644,-0.057 0.10383,-0.09 0.11816,-0.097 0.0644,-0.064 0.0931,-0.1683 0.0859,-0.3116 -0.0143,-0.4368 -0.14682,-0.8486 -0.39746,-1.2353 -0.20053,-0.2936 -0.40463,-0.5013 -0.6123,-0.6231 -0.17905,-0.1002 -0.41896,-0.1468 -0.71973,-0.1396 z m -4.125,8.5615 c 0.12174,-0.01 0.32942,0.018 0.62305,0.075 0.32942,0.064 0.59439,0.1038 0.79492,0.1182 0.57291,0.036 1.26041,0.3115 2.0625,0.8271 0.30077,0.2005 0.47264,0.4834 0.51562,0.8486 0.0573,0.3724 -0.0752,0.6482 -0.39746,0.8272 -0.16472,0.1217 -0.38315,0.3079 -0.65527,0.5586 -0.22202,0.2005 -0.43328,0.3258 -0.63379,0.376 -0.59441,0.1504 -1.01335,0.2256 -1.25684,0.2256 -0.31511,-0.014 -0.73763,-0.1003 -1.26757,-0.2579 -0.69467,-0.2076 -1.153,-0.333 -1.375,-0.3759 -0.87371,-0.1791 -1.40007,-0.3008 -1.57911,-0.3653 -0.58008,-0.222 -0.88802,-0.5442 -0.92382,-0.9668 -0.0573,-0.5084 0.0251,-0.9166 0.24707,-1.2246 0.22916,-0.3294 0.60872,-0.5049 1.13867,-0.5263 0.32226,-0.029 0.78059,-0.043 1.375,-0.043 0.42968,0 0.7233,-0.018 0.88086,-0.054 0.15754,-0.029 0.30793,-0.043 0.45117,-0.043 z m 4.125,-8.5615 c -0.16472,0 -0.40821,0.021 -0.73047,0.064 0.0788,-0.01 -0.73048,0.3402 -2.42773,1.042 -0.47983,0.1934 -1.20314,0.684 -2.16993,1.4717 -0.92383,0.752 -1.50391,1.307 -1.74023,1.665 -0.58724,0.8809 -1.2461,1.6723 -1.97656,2.3741 -0.23633,0.2435 -0.40463,0.5729 -0.50489,0.9883 -0.15039,0.4726 -0.25423,0.7555 -0.31152,0.8486 -0.12174,0.1575 -0.18978,0.3437 -0.2041,0.5586 -0.0358,0.3222 -0.0967,0.598 -0.18262,0.8271 -0.23633,0.7019 0.0143,1.4645 0.75196,2.2881 0.52994,0.5944 1.41796,0.9382 2.66406,1.0313 0.3151,0.01 0.57291,0.082 0.77344,0.2255 0.32226,0.2006 0.73762,0.3724 1.24609,0.5157 0.71614,0.2077 1.57193,0.2506 2.56738,0.1289 0.88085,-0.1146 1.54329,-0.3008 1.98731,-0.5586 0.35806,-0.2292 0.70897,-0.5192 1.05273,-0.8701 0.32225,-0.3151 0.49771,-0.5443 0.52637,-0.6875 0.007,-0.022 0.12889,-0.1862 0.36523,-0.4942 0.222,-0.3151 0.34374,-0.6517 0.36524,-1.0097 0.0215,-0.4226 -0.11818,-0.8415 -0.41895,-1.2569 -0.21485,-0.3007 -0.57293,-0.6552 -1.07422,-1.0635 -0.3366,-0.2864 -0.80567,-0.5048 -1.40722,-0.6552 -0.12176,-0.036 -0.34018,-0.093 -0.65528,-0.1719 -0.22917,-0.043 -0.39747,-0.079 -0.50488,-0.1074 -0.25066,-0.1146 -0.86654,-0.1719 -1.84766,-0.1719 -0.99544,0 -1.71159,0.039 -2.14843,0.1182 -0.37957,0.079 -0.60873,0.075 -0.6875,-0.011 -0.0286,-0.043 -0.0108,-0.1325 0.0537,-0.2685 0.1289,-0.3151 0.40103,-0.6338 0.8164,-0.9561 0.0573,-0.057 0.12174,-0.1289 0.19336,-0.2148 0.0931,-0.1074 0.18261,-0.2077 0.26856,-0.3008 0.33658,-0.3294 0.89159,-0.7734 1.66504,-1.332 0.97395,-0.7162 2.07323,-1.2712 3.29785,-1.6651 0.19335,-0.072 0.40819,0.01 0.64453,0.2363 0.2578,0.2364 0.41893,0.3546 0.4834,0.3545 0.21483,10e-5 0.43325,-0.1289 0.65527,-0.3867 0.0501,-0.043 0.0967,-0.093 0.13965,-0.1504 0.0644,-0.057 0.10383,-0.09 0.11816,-0.097 0.0644,-0.064 0.0931,-0.1683 0.0859,-0.3116 -0.0143,-0.4368 -0.14682,-0.8486 -0.39746,-1.2353 -0.20053,-0.2936 -0.40463,-0.5013 -0.6123,-0.6231 -0.17905,-0.1002 -0.41896,-0.1468 -0.71973,-0.1396 z m -4.125,8.5615 c 0.12174,-0.01 0.32942,0.018 0.62305,0.075 0.32942,0.064 0.59439,0.1038 0.79492,0.1182 0.57291,0.036 1.26041,0.3115 2.0625,0.8271 0.30077,0.2005 0.47264,0.4834 0.51562,0.8486 0.0573,0.3724 -0.0752,0.6482 -0.39746,0.8272 -0.16472,0.1217 -0.38315,0.3079 -0.65527,0.5586 -0.22202,0.2005 -0.43328,0.3258 -0.63379,0.376 -0.59441,0.1504 -1.01335,0.2256 -1.25684,0.2256 -0.31511,-0.014 -0.73763,-0.1003 -1.26757,-0.2579 -0.69467,-0.2076 -1.153,-0.333 -1.375,-0.3759 -0.87371,-0.1791 -1.40007,-0.3008 -1.57911,-0.3653 -0.58008,-0.222 -0.88802,-0.5442 -0.92382,-0.9668 -0.0573,-0.5084 0.0251,-0.9166 0.24707,-1.2246 0.22916,-0.3294 0.60872,-0.5049 1.13867,-0.5263 0.32226,-0.029 0.78059,-0.043 1.375,-0.043 0.42968,0 0.7233,-0.018 0.88086,-0.054 0.15754,-0.029 0.30793,-0.043 0.45117,-0.043 z"
         id="path3835"
         inkscape:connector-curvature="0" />
      <path
         d="m 237.22504,1019.2469 c 1.84048,0.022 3.15461,0.197 3.94238,0.5264 0.83072,0.3509 1.76529,0.5658 2.80371,0.6445 1.27473,0.1075 2.10903,0.2722 2.50293,0.4942 0.73761,0.401 0.84862,0.888 0.33301,1.4609 -0.8021,0.931 -1.42157,1.529 -1.8584,1.794 -0.32944,0.2077 -0.58367,0.3903 -0.7627,0.5478 -0.13608,0.1146 -0.30079,0.2829 -0.49414,0.5049 -0.25782,0.2793 -0.40463,0.4297 -0.44043,0.4512 -0.17188,0.1862 -0.27572,0.3008 -0.31152,0.3437 -0.0788,0.1218 -0.068,0.2041 0.0322,0.2471 0.0644,0.022 0.1826,0.01 0.35449,-0.043 0.20051,-0.057 0.33299,-0.086 0.39746,-0.086 0.0215,0 0.1826,0.032 0.4834,0.097 0.26496,0.064 0.41893,0.1289 0.46191,0.1933 0.11457,0.1289 0.0609,0.3438 -0.16113,0.6446 -0.22202,0.3007 -0.52996,0.4941 -0.92383,0.58 -0.14324,0.021 -0.40821,0.032 -0.79492,0.032 -0.45118,0 -0.73406,0.043 -0.84863,0.1289 -0.0645,0.036 -0.26141,0.054 -0.59082,0.054 -0.31512,-0.014 -0.58725,0.068 -0.81641,0.2471 -0.98829,0.8164 -1.68295,1.5325 -2.08398,2.1484 -0.18621,0.2865 -0.35092,0.4583 -0.49414,0.5156 -0.15756,0.064 -0.28289,0.1504 -0.37598,0.2578 -1.0599,1.3034 -1.59701,1.9694 -1.61133,1.9981 -0.44401,0.358 -0.94174,0.5514 -1.49316,0.5801 -0.44402,0.014 -0.66244,-0.2328 -0.65528,-0.7413 0.0143,-0.5872 0.43327,-1.2246 1.25684,-1.9121 0.35807,-0.3007 0.8916,-0.7698 1.60059,-1.4072 0.10025,-0.1074 0.29361,-0.3044 0.58007,-0.5908 0.22916,-0.2363 0.39746,-0.4011 0.50489,-0.4942 0.17903,-0.1289 0.29719,-0.2757 0.35449,-0.4404 0.0716,-0.2077 -0.0322,-0.29 -0.31153,-0.2471 -1.02409,0.1361 -1.56836,0.2113 -1.63281,0.2256 -0.10742,0 -0.2793,0.022 -0.51562,0.064 -0.27214,0.064 -0.50489,0.1002 -0.69824,0.1074 -1.01694,0.079 -1.50749,-0.2399 -1.47168,-0.956 0.0143,-0.4369 0.16829,-0.7448 0.46191,-0.9239 0.15755,-0.1002 0.42252,-0.1826 0.79492,-0.247 0.17187,-0.022 0.4082,0.011 0.70899,0.097 0.31509,0.086 0.50129,0.1289 0.55859,0.1289 0.0358,0 0.17187,-0.047 0.4082,-0.1396 0.19336,-0.065 0.40104,-0.097 0.62305,-0.097 1.28905,0 1.95149,0 1.9873,0.011 0.41536,0.1217 0.68033,0.179 0.79493,0.1718 0.11457,-0.01 0.56574,-0.3974 1.35351,-1.1709 0.96679,-0.931 1.5218,-1.4573 1.66504,-1.5791 0.58723,-0.4798 0.90591,-0.7483 0.95606,-0.8056 0.23631,-0.2364 0.25779,-0.4118 0.0644,-0.5264 -0.18621,-0.079 -0.79852,-0.2113 -1.83692,-0.3975 -1.28191,-0.2148 -2.0625,-0.358 -2.34179,-0.4297 -1.51824,-0.3509 -2.98276,-0.3974 -4.39356,-0.1396 -0.14323,0.021 -0.3724,0.054 -0.6875,0.097 -0.24349,0.043 -0.42969,0.079 -0.55859,0.1074 -0.36524,0.072 -0.67318,0.2149 -0.92383,0.4297 -0.0859,0.057 -0.34375,0.3079 -0.77344,0.7519 -0.26497,0.265 -0.47982,0.3939 -0.64453,0.3868 -0.20052,-0.01 -0.38314,-0.065 -0.54785,-0.1719 -0.16471,-0.1217 -0.25065,-0.2542 -0.25781,-0.3975 0,-0.1002 0.0895,-0.2864 0.26855,-0.5586 0.043,-0.079 0.0501,-0.1933 0.0215,-0.3437 -0.0573,-0.1862 -0.0824,-0.3044 -0.0752,-0.3545 0.007,-0.1504 0.23275,-0.3903 0.67676,-0.7197 0.52995,-0.3796 1.12435,-0.6481 1.7832,-0.8057 1.21029,-0.2721 2.42773,-0.3867 3.65235,-0.3438 z"
         id="path3837"
         inkscape:connector-curvature="0" />
      <path
         d="m 265.03656,1019.6981 c -0.4297,0.01 -0.92384,0.068 -1.48242,0.1826 0.0215,10e-5 -0.61589,0.2471 -1.91211,0.7412 -0.99545,0.3796 -1.51824,1.0027 -1.56836,1.8692 -0.043,0.8092 0.21484,1.4717 0.77344,1.9873 0.20767,0.1934 0.22916,0.3079 0.0645,0.3437 -0.10743,0.029 -0.2793,0.029 -0.51562,0 -0.3366,-0.05 -0.75912,0.018 -1.26758,0.2041 -0.68751,0.2507 -1.04558,0.641 -1.07422,1.1709 -0.0143,0.53 0.16829,0.8988 0.54785,1.1065 -0.007,-0.01 0.28287,0.068 0.87012,0.2256 0.16471,0.05 0.11458,0.111 -0.15039,0.1826 -0.44402,0.1146 -0.6696,0.1755 -0.67676,0.1826 -0.0716,0.036 -0.25424,0.1755 -0.54785,0.419 -0.36524,0.3151 -0.75554,0.6087 -1.1709,0.8808 -0.49414,0.3223 -0.82715,0.6589 -0.99902,1.0098 -0.11459,0.222 -0.17904,0.5049 -0.19336,0.8486 -0.0143,0.2865 0.0931,0.6016 0.32226,0.9453 0.28646,0.4011 0.65169,0.6696 1.0957,0.8057 0.22201,0.072 0.43327,0.1575 0.63379,0.2578 0.25781,0.1146 0.40462,0.1826 0.44043,0.2041 0.34375,0.1289 0.91667,0.2113 1.71875,0.2471 1.4108,0.057 2.75358,-0.6947 4.02832,-2.2559 0.25781,-0.2936 0.4082,-0.7519 0.45118,-1.375 -10e-6,-0.021 -10e-6,-0.5657 0,-1.6328 -10e-6,-0.4726 0.0215,-0.7555 0.0645,-0.8486 0.007,-0.022 0.13248,-0.1039 0.37598,-0.2471 1.2604,-0.5371 2.12336,-1.0635 2.58886,-1.5791 0.222,-0.2435 0.41894,-0.4225 0.59082,-0.5371 0.11457,-0.079 0.26854,-0.2542 0.46192,-0.5264 0.26496,-0.3509 0.40819,-0.8593 0.42968,-1.5254 0.0215,-0.58 -0.0394,-1.0312 -0.18261,-1.3535 -0.15757,-0.3151 -0.57651,-0.7018 -1.25684,-1.1601 -0.7448,-0.487 -1.36069,-0.7412 -1.84766,-0.7627 -0.36524,-0.01 -0.56934,-0.011 -0.6123,-0.011 z m -0.30078,1.7832 c 0.80923,0 1.51464,0.2113 2.11621,0.6338 0.29361,0.2149 0.48697,0.4691 0.58008,0.7627 0.0931,0.308 0.0501,0.5658 -0.12891,0.7734 -0.35808,0.4226 -0.61231,0.6732 -0.76269,0.752 -0.0501,0.022 -0.1325,0.093 -0.24707,0.2148 -0.1146,0.1218 -0.26857,0.2221 -0.46192,0.3008 -0.70183,0.308 -1.16374,0.5443 -1.38574,0.709 -0.3724,0.3008 -0.75554,0.3259 -1.14941,0.075 -0.18621,-0.1002 -0.39747,-0.2327 -0.63379,-0.3975 -0.15756,-0.1217 -0.26857,-0.1969 -0.33301,-0.2255 -0.1504,-0.043 -0.2435,-0.079 -0.2793,-0.1075 -0.0716,-0.05 -0.068,-0.111 0.0107,-0.1826 0.24349,-0.2435 0.34017,-0.4225 0.29004,-0.5371 -0.0143,-0.036 -0.0609,-0.093 -0.13965,-0.1719 -0.10026,-0.1145 -0.17188,-0.2005 -0.21484,-0.2578 -0.17188,-0.2506 -0.24708,-0.4834 -0.22558,-0.6982 0.0573,-0.3366 0.29361,-0.6481 0.70898,-0.9346 0.54426,-0.4082 1.29622,-0.6445 2.25586,-0.709 z m -3.48047,4.9414 c 0.0644,0 0.12532,0.025 0.18262,0.075 0.13606,0.1433 0.14322,0.2507 0.0215,0.3223 -0.17188,0.093 -0.23991,0.1396 -0.2041,0.1396 -0.0645,0.014 -0.15756,-0.018 -0.2793,-0.097 -0.11459,-0.072 -0.17188,-0.1397 -0.17187,-0.2041 -1e-5,-0.043 0.0537,-0.093 0.16113,-0.1504 0.10026,-0.057 0.19694,-0.086 0.29004,-0.086 z m 1.49316,1.7188 c 0.16471,0 0.24349,0.057 0.23633,0.1719 -0.0215,0.1074 -0.0537,0.2434 -0.0967,0.4082 -0.043,0.2005 -0.0752,0.3294 -0.0967,0.3867 -0.13607,0.7806 -0.20053,1.1601 -0.19336,1.1386 -0.27214,0.4154 -0.51563,0.7198 -0.73047,0.9131 -0.52279,0.4655 -1.14225,0.7054 -1.85839,0.7198 -0.92384,-0.036 -1.55762,-0.1755 -1.90137,-0.419 -0.35808,-0.2363 -0.50489,-0.4834 -0.44043,-0.7412 0.007,-0.064 0.0967,-0.1361 0.26855,-0.2148 0.22201,-0.1146 0.38314,-0.222 0.4834,-0.3223 0.58724,-0.5729 1.28548,-0.9847 2.09473,-1.2354 0.32226,-0.1074 0.62304,-0.2434 0.90234,-0.4082 0.25065,-0.1432 0.50488,-0.2434 0.7627,-0.3007 0.24348,-0.064 0.43326,-0.097 0.56933,-0.097 z"
         id="path3839"
         inkscape:connector-curvature="0" />
      <path
         d="m 288.33636,1019.2684 c -0.25782,0 -0.3724,0 -0.34375,-0.011 -0.8379,0.057 -1.36426,0.1468 -1.5791,0.2685 -0.45118,0.2292 -0.92383,0.3223 -1.41797,0.2793 -0.54427,-0.043 -1.20313,0.093 -1.97656,0.4082 -1.43229,0.6088 -2.33822,1.0098 -2.71777,1.2032 -1.23177,0.6803 -1.85482,1.5075 -1.86914,2.4814 -0.0143,0.7591 0.32942,1.3142 1.03125,1.6651 0.46549,0.222 1.44303,0.333 2.93262,0.333 2.20572,0 3.91372,-0.2256 5.12402,-0.6768 0.6302,-0.222 1.21027,-0.4547 1.74023,-0.6982 0.62304,-0.2793 0.9095,-0.4118 0.85938,-0.3975 0.1647,-0.064 0.25064,0.032 0.25781,0.29 0.007,0.1361 -0.0215,0.3796 -0.0859,0.7305 -0.0573,0.3653 -0.24708,0.9704 -0.56933,1.8154 -0.20054,0.53 -0.6338,1.3034 -1.29981,2.3204 -0.32227,0.4798 -0.88087,0.913 -1.67578,1.2998 -0.67318,0.3294 -1.18165,0.4941 -1.52539,0.4941 -0.17904,0 -0.51205,0.093 -0.99902,0.2793 -0.4655,0.179 -0.78419,0.265 -0.95606,0.2578 -1.03125,-0.057 -1.76172,-0.054 -2.1914,0.011 -0.49415,0.072 -0.95606,0.082 -1.38575,0.032 -0.0501,0 -0.26855,0 -0.65527,0.011 -0.30078,0.014 -0.51921,0 -0.65527,-0.054 -0.10026,-0.05 -0.23275,-0.1969 -0.39746,-0.4404 -0.1504,-0.2292 -0.27214,-0.3438 -0.36524,-0.3438 -0.29362,0.014 -0.43685,0.2578 -0.42969,0.7305 0.007,0.2363 0.0824,0.4333 0.22559,0.5908 0.14323,0.1432 0.32585,0.2184 0.54785,0.2256 0.0645,0 0.26139,0.1217 0.59082,0.3652 0.34375,0.265 0.86296,0.4369 1.55762,0.5157 1.03125,0.1217 2.51367,0.072 4.44726,-0.1504 0.93099,-0.1146 1.86556,-0.4011 2.80372,-0.8594 0.83788,-0.4082 1.53254,-0.8773 2.08398,-1.4072 0.90949,-0.8737 1.51463,-1.7689 1.81543,-2.6856 0.24348,-0.7734 0.44758,-1.289 0.6123,-1.5469 0.30793,-0.5514 0.43326,-1.4537 0.37598,-2.707 -0.0287,-0.4511 0.043,-0.931 0.21484,-1.4394 0.0286,-0.1074 0.0215,-0.2507 -0.0215,-0.4297 -0.0573,-0.2077 -0.15399,-0.3867 -0.29004,-0.5371 -0.28647,-0.2936 -0.58367,-0.4405 -0.8916,-0.4405 -0.21486,0 -0.40464,-0.1181 -0.56934,-0.3545 -0.30079,-0.4296 -0.49415,-0.6874 -0.58007,-0.7734 -0.44403,-0.4368 -1.03485,-0.6553 -1.77247,-0.6553 z m -0.8916,1.794 c 0.21484,0 0.49413,0.054 0.83789,0.1611 0.37955,0.1146 0.62662,0.2435 0.74121,0.3867 0.13606,0.1719 0.20051,0.3975 0.19336,0.6768 -0.007,0.3151 -0.12175,0.5837 -0.34375,0.8057 -0.39389,0.401 -1.01693,0.6839 -1.86914,0.8486 -1.4323,0.2721 -2.13054,0.4118 -2.09472,0.4189 -0.40105,-0.014 -0.78777,0.01 -1.16016,0.064 -0.31511,0.043 -0.5586,0.05 -0.73047,0.022 -0.21485,-0.029 -0.61589,-0.043 -1.20312,-0.043 -0.57292,0 -0.8737,-0.01 -0.90235,-0.022 -0.39388,-0.057 -0.59082,-0.247 -0.59082,-0.5693 0,-0.53 0.95605,-1.0993 2.86817,-1.708 0.23632,-0.079 0.54068,-0.2041 0.91308,-0.376 0.29362,-0.1575 0.56217,-0.2614 0.80567,-0.3115 1.21027,-0.2435 2.05533,-0.3617 2.53515,-0.3545 z"
         id="path3841"
         inkscape:connector-curvature="0" />
    </g>
    <text
       sodipodi:linespacing="125%"
       id="text4008"
       y="792.36218"
       x="75.022606"
       style="font-size:22px;font-style:normal;font-variant:normal;font-weight:normal;font-stretch:normal;text-align:start;line-height:125%;letter-spacing:0px;word-spacing:0px;writing-mode:lr-tb;text-anchor:start;fill:#000000;fill-opacity:1;stroke:none;font-family:Pirogov;-inkscape-font-specification:Pirogov"
       xml:space="preserve"><tspan
         sodipodi:role="line"
         id="tspan4034"
         x="75.022606"
         y="792.36218">Бб</tspan></text>
    <text
       xml:space="preserve"
       style="font-size:22px;font-style:normal;font-variant:normal;font-weight:normal;font-stretch:normal;text-align:start;line-height:125%;letter-spacing:0px;word-spacing:0px;writing-mode:lr-tb;text-anchor:start;fill:#000000;fill-opacity:1;stroke:none;font-family:Pirogov;-inkscape-font-specification:Pirogov"
       x="121.62547"
       y="792.36218"
       id="text4012"
       sodipodi:linespacing="125%"><tspan
         sodipodi:role="line"
         id="tspan4036"
         x="121.62547"
         y="792.36218">Вв</tspan></text>
    <text
       sodipodi:linespacing="125%"
       id="text4016"
       y="862.36218"
       x="74.371841"
       style="font-size:22px;font-style:normal;font-variant:normal;font-weight:normal;font-stretch:normal;text-align:start;line-height:125%;letter-spacing:0px;word-spacing:0px;writing-mode:lr-tb;text-anchor:start;fill:#000000;fill-opacity:1;stroke:none;font-family:Pirogov;-inkscape-font-specification:Pirogov"
       xml:space="preserve"><tspan
         sodipodi:role="line"
         id="tspan4038"
         x="74.371841"
         y="862.36218">Сс</tspan></text>
    <text
       xml:space="preserve"
       style="font-size:22px;font-style:normal;font-variant:normal;font-weight:normal;font-stretch:normal;text-align:start;line-height:125%;letter-spacing:0px;word-spacing:0px;writing-mode:lr-tb;text-anchor:start;fill:#000000;fill-opacity:1;stroke:none;font-family:Pirogov;-inkscape-font-specification:Pirogov"
       x="125.25"
       y="862.36218"
       id="text4020"
       sodipodi:linespacing="125%"><tspan
         sodipodi:role="line"
         id="tspan4040"
         x="125.25"
         y="862.36218">Тт</tspan></text>
  </g>
</svg>
